<svg version="1.1" xmlns="http://www.w3.org/2000/svg" xmlns:xlink="http://www.w3.org/1999/xlink" width="1033" height="855"><defs><clipPath id="mCzNUfJmwnOr"><path fill="none" stroke="none" d=" M 0 0 L 1033 0 L 1033 855 L 0 855 L 0 0 Z"/></clipPath></defs><g transform="scale(1,1)" clip-path="url(#mCzNUfJmwnOr)"><g><rect fill="rgb(255,255,255)" stroke="none" x="0" y="0" width="1033" height="855" fill-opacity="1"/><path fill="rgb(21,101,192)" stroke="none" paint-order="stroke fill markers" fill-rule="evenodd" d=" M 122.13241667950095 514.3545340272466 L 578.654287692185 752.2356622177649 L 919.7338464947641 510.8562821420919 L 729.0791187538348 29.84664793332331 L 646.8701994527011 379.6718364487914 L 312.78714442043025 148.78721202858247 Z" fill-opacity="0.09803921568627451"/><path fill="none" stroke="rgb(21,101,192)" paint-order="fill stroke markers" d=" M 122.13241667950095 514.3545340272466 L 578.654287692185 752.2356622177649" stroke-opacity="0.6980392156862745" stroke-linecap="round" stroke-linejoin="round" stroke-miterlimit="10" stroke-width="2.5"/><path fill="none" stroke="rgb(21,101,192)" paint-order="fill stroke markers" d=" M 578.654287692185 752.2356622177649 L 919.7338464947641 510.8562821420919" stroke-opacity="0.6980392156862745" stroke-linecap="round" stroke-linejoin="round" stroke-miterlimit="10" stroke-width="2.5"/><path fill="none" stroke="rgb(21,101,192)" paint-order="fill stroke markers" d=" M 919.7338464947641 510.8562821420919 L 729.0791187538348 29.84664793332331" stroke-opacity="0.6980392156862745" stroke-linecap="round" stroke-linejoin="round" stroke-miterlimit="10" stroke-width="2.5"/><path fill="none" stroke="rgb(21,101,192)" paint-order="fill stroke markers" d=" M 729.0791187538348 29.84664793332331 L 646.8701994527011 379.6718364487914" stroke-opacity="0.6980392156862745" stroke-linecap="round" stroke-linejoin="round" stroke-miterlimit="10" stroke-width="2.5"/><path fill="none" stroke="rgb(21,101,192)" paint-order="fill stroke markers" d=" M 646.8701994527011 379.6718364487914 L 312.78714442043025 148.78721202858247" stroke-opacity="0.6980392156862745" stroke-linecap="round" stroke-linejoin="round" stroke-miterlimit="10" stroke-width="2.5"/><path fill="none" stroke="rgb(21,101,192)" paint-order="fill stroke markers" d=" M 312.78714442043025 148.78721202858247 L 122.13241667950095 514.3545340272466" stroke-opacity="0.6980392156862745" stroke-linecap="round" stroke-linejoin="round" stroke-miterlimit="10" stroke-width="2.5"/><path fill="none" stroke="rgb(0,0,0)" paint-order="fill stroke markers" d=" M 294.8757232341408 674.2722184096191 L 122.13241667950095 514.3545340272466" stroke-opacity="0.6980392156862745" stroke-linejoin="round" stroke-miterlimit="10" stroke-width="2.5" stroke-dasharray="2.5,3"/><path fill="none" stroke="rgb(0,0,0)" paint-order="fill stroke markers" d=" M 294.8757232341408 674.2722184096191 L 312.78714442043025 148.78721202858247" stroke-opacity="0.6980392156862745" stroke-linejoin="round" stroke-miterlimit="10" stroke-width="2.5" stroke-dasharray="2.5,3"/><path fill="none" stroke="rgb(0,0,0)" paint-order="fill stroke markers" d=" M 294.8757232341408 674.2722184096191 L 646.8701994527011 379.6718364487914" stroke-opacity="0.6980392156862745" stroke-linejoin="round" stroke-miterlimit="10" stroke-width="2.5" stroke-dasharray="2.5,3"/><path fill="none" stroke="rgb(0,0,0)" paint-order="fill stroke markers" d=" M 294.8757232341408 674.2722184096191 L 729.0791187538348 29.84664793332331" stroke-opacity="0.6980392156862745" stroke-linejoin="round" stroke-miterlimit="10" stroke-width="2.5" stroke-dasharray="2.5,3"/><path fill="none" stroke="rgb(0,0,0)" paint-order="fill stroke markers" d=" M 294.8757232341408 674.2722184096191 L 578.654287692185 752.2356622177649" stroke-opacity="0.6980392156862745" stroke-linejoin="round" stroke-miterlimit="10" stroke-width="2.5" stroke-dasharray="2.5,3"/><path fill="none" stroke="rgb(0,0,0)" paint-order="fill stroke markers" d=" M 294.8757232341408 674.2722184096191 L 919.7338464947641 510.8562821420919" stroke-opacity="0.6980392156862745" stroke-linejoin="round" stroke-miterlimit="10" stroke-width="2.5" stroke-dasharray="2.5,3"/><path fill="rgb(21,101,192)" stroke="none" paint-order="stroke fill markers" d=" M 127.13241667950095 514.3545340272466 C 127.13241667950095 517.1159577764006 124.89384042865491 519.3545340272466 122.13241667950095 519.3545340272466 C 119.37099293034699 519.3545340272466 117.13241667950095 517.1159577764006 117.13241667950095 514.3545340272466 C 117.13241667950095 511.59311027809264 119.37099293034699 509.3545340272466 122.13241667950095 509.3545340272466 C 124.89384042865491 509.3545340272466 127.13241667950095 511.59311027809264 127.13241667950095 514.3545340272466 Z" fill-opacity="1"/><path fill="none" stroke="rgb(0,0,0)" paint-order="fill stroke markers" d=" M 127.13241667950095 514.3545340272466 C 127.13241667950095 517.1159577764006 124.89384042865491 519.3545340272466 122.13241667950095 519.3545340272466 C 119.37099293034699 519.3545340272466 117.13241667950095 517.1159577764006 117.13241667950095 514.3545340272466 C 117.13241667950095 511.59311027809264 119.37099293034699 509.3545340272466 122.13241667950095 509.3545340272466 C 124.89384042865491 509.3545340272466 127.13241667950095 511.59311027809264 127.13241667950095 514.3545340272466 Z" stroke-opacity="1" stroke-linecap="round" stroke-linejoin="round" stroke-miterlimit="10"/><text fill="rgb(21,101,192)" stroke="none" font-family="geogebra-sans-serif, sans-serif" font-size="16px" font-style="normal" font-weight="normal" text-decoration="normal" x="109" y="498" text-anchor="start" dominant-baseline="alphabetic" fill-opacity="1">A</text><text fill="none" stroke="rgb(255,255,255)" font-family="geogebra-sans-serif, sans-serif" font-size="16px" font-style="normal" font-weight="normal" text-decoration="normal" x="109" y="498" text-anchor="start" dominant-baseline="alphabetic" stroke-opacity="1" stroke-linejoin="bevel" stroke-miterlimit="10" stroke-width="3">A</text><text fill="rgb(21,101,192)" stroke="none" font-family="geogebra-sans-serif, sans-serif" font-size="16px" font-style="normal" font-weight="normal" text-decoration="normal" x="109" y="498" text-anchor="start" dominant-baseline="alphabetic" fill-opacity="1">A</text><path fill="rgb(21,101,192)" stroke="none" paint-order="stroke fill markers" d=" M 583.654287692185 752.2356622177649 C 583.654287692185 754.9970859669189 581.415711441339 757.2356622177649 578.654287692185 757.2356622177649 C 575.892863943031 757.2356622177649 573.654287692185 754.9970859669189 573.654287692185 752.2356622177649 C 573.654287692185 749.4742384686109 575.892863943031 747.2356622177649 578.654287692185 747.2356622177649 C 581.415711441339 747.2356622177649 583.654287692185 749.4742384686109 583.654287692185 752.2356622177649 Z" fill-opacity="1"/><path fill="none" stroke="rgb(0,0,0)" paint-order="fill stroke markers" d=" M 583.654287692185 752.2356622177649 C 583.654287692185 754.9970859669189 581.415711441339 757.2356622177649 578.654287692185 757.2356622177649 C 575.892863943031 757.2356622177649 573.654287692185 754.9970859669189 573.654287692185 752.2356622177649 C 573.654287692185 749.4742384686109 575.892863943031 747.2356622177649 578.654287692185 747.2356622177649 C 581.415711441339 747.2356622177649 583.654287692185 749.4742384686109 583.654287692185 752.2356622177649 Z" stroke-opacity="1" stroke-linecap="round" stroke-linejoin="round" stroke-miterlimit="10"/><text fill="rgb(21,101,192)" stroke="none" font-family="geogebra-sans-serif, sans-serif" font-size="16px" font-style="normal" font-weight="normal" text-decoration="normal" x="583" y="742" text-anchor="start" dominant-baseline="alphabetic" fill-opacity="1">B</text><text fill="none" stroke="rgb(255,255,255)" font-family="geogebra-sans-serif, sans-serif" font-size="16px" font-style="normal" font-weight="normal" text-decoration="normal" x="583" y="742" text-anchor="start" dominant-baseline="alphabetic" stroke-opacity="1" stroke-linejoin="bevel" stroke-miterlimit="10" stroke-width="3">B</text><text fill="rgb(21,101,192)" stroke="none" font-family="geogebra-sans-serif, sans-serif" font-size="16px" font-style="normal" font-weight="normal" text-decoration="normal" x="583" y="742" text-anchor="start" dominant-baseline="alphabetic" fill-opacity="1">B</text><path fill="rgb(21,101,192)" stroke="none" paint-order="stroke fill markers" d=" M 924.7338464947641 510.8562821420919 C 924.7338464947641 513.6177058912459 922.4952702439181 515.8562821420919 919.7338464947641 515.8562821420919 C 916.9724227456101 515.8562821420919 914.7338464947641 513.6177058912459 914.7338464947641 510.8562821420919 C 914.7338464947641 508.09485839293797 916.9724227456101 505.8562821420919 919.7338464947641 505.8562821420919 C 922.4952702439181 505.8562821420919 924.7338464947641 508.09485839293797 924.7338464947641 510.8562821420919 Z" fill-opacity="1"/><path fill="none" stroke="rgb(0,0,0)" paint-order="fill stroke markers" d=" M 924.7338464947641 510.8562821420919 C 924.7338464947641 513.6177058912459 922.4952702439181 515.8562821420919 919.7338464947641 515.8562821420919 C 916.9724227456101 515.8562821420919 914.7338464947641 513.6177058912459 914.7338464947641 510.8562821420919 C 914.7338464947641 508.09485839293797 916.9724227456101 505.8562821420919 919.7338464947641 505.8562821420919 C 922.4952702439181 505.8562821420919 924.7338464947641 508.09485839293797 924.7338464947641 510.8562821420919 Z" stroke-opacity="1" stroke-linecap="round" stroke-linejoin="round" stroke-miterlimit="10"/><text fill="rgb(21,101,192)" stroke="none" font-family="geogebra-sans-serif, sans-serif" font-size="16px" font-style="normal" font-weight="normal" text-decoration="normal" x="924" y="501" text-anchor="start" dominant-baseline="alphabetic" fill-opacity="1">C</text><text fill="none" stroke="rgb(255,255,255)" font-family="geogebra-sans-serif, sans-serif" font-size="16px" font-style="normal" font-weight="normal" text-decoration="normal" x="924" y="501" text-anchor="start" dominant-baseline="alphabetic" stroke-opacity="1" stroke-linejoin="bevel" stroke-miterlimit="10" stroke-width="3">C</text><text fill="rgb(21,101,192)" stroke="none" font-family="geogebra-sans-serif, sans-serif" font-size="16px" font-style="normal" font-weight="normal" text-decoration="normal" x="924" y="501" text-anchor="start" dominant-baseline="alphabetic" fill-opacity="1">C</text><path fill="rgb(21,101,192)" stroke="none" paint-order="stroke fill markers" d=" M 734.0791187538348 29.84664793332331 C 734.0791187538348 32.608071682477274 731.8405425029888 34.84664793332331 729.0791187538348 34.84664793332331 C 726.3176950046808 34.84664793332331 724.0791187538348 32.608071682477274 724.0791187538348 29.84664793332331 C 724.0791187538348 27.085224184169345 726.3176950046808 24.84664793332331 729.0791187538348 24.84664793332331 C 731.8405425029888 24.84664793332331 734.0791187538348 27.085224184169345 734.0791187538348 29.84664793332331 Z" fill-opacity="1"/><path fill="none" stroke="rgb(0,0,0)" paint-order="fill stroke markers" d=" M 734.0791187538348 29.84664793332331 C 734.0791187538348 32.608071682477274 731.8405425029888 34.84664793332331 729.0791187538348 34.84664793332331 C 726.3176950046808 34.84664793332331 724.0791187538348 32.608071682477274 724.0791187538348 29.84664793332331 C 724.0791187538348 27.085224184169345 726.3176950046808 24.84664793332331 729.0791187538348 24.84664793332331 C 731.8405425029888 24.84664793332331 734.0791187538348 27.085224184169345 734.0791187538348 29.84664793332331 Z" stroke-opacity="1" stroke-linecap="round" stroke-linejoin="round" stroke-miterlimit="10"/><text fill="rgb(21,101,192)" stroke="none" font-family="geogebra-sans-serif, sans-serif" font-size="16px" font-style="normal" font-weight="normal" text-decoration="normal" x="733" y="24" text-anchor="start" dominant-baseline="alphabetic" fill-opacity="1">D</text><text fill="none" stroke="rgb(255,255,255)" font-family="geogebra-sans-serif, sans-serif" font-size="16px" font-style="normal" font-weight="normal" text-decoration="normal" x="733" y="24" text-anchor="start" dominant-baseline="alphabetic" stroke-opacity="1" stroke-linejoin="bevel" stroke-miterlimit="10" stroke-width="3">D</text><text fill="rgb(21,101,192)" stroke="none" font-family="geogebra-sans-serif, sans-serif" font-size="16px" font-style="normal" font-weight="normal" text-decoration="normal" x="733" y="24" text-anchor="start" dominant-baseline="alphabetic" fill-opacity="1">D</text><path fill="rgb(21,101,192)" stroke="none" paint-order="stroke fill markers" d=" M 651.8701994527011 379.6718364487914 C 651.8701994527011 382.43326019794534 649.6316232018551 384.6718364487914 646.8701994527011 384.6718364487914 C 644.108775703547 384.6718364487914 641.8701994527011 382.43326019794534 641.8701994527011 379.6718364487914 C 641.8701994527011 376.91041269963745 644.108775703547 374.6718364487914 646.8701994527011 374.6718364487914 C 649.6316232018551 374.6718364487914 651.8701994527011 376.91041269963745 651.8701994527011 379.6718364487914 Z" fill-opacity="1"/><path fill="none" stroke="rgb(0,0,0)" paint-order="fill stroke markers" d=" M 651.8701994527011 379.6718364487914 C 651.8701994527011 382.43326019794534 649.6316232018551 384.6718364487914 646.8701994527011 384.6718364487914 C 644.108775703547 384.6718364487914 641.8701994527011 382.43326019794534 641.8701994527011 379.6718364487914 C 641.8701994527011 376.91041269963745 644.108775703547 374.6718364487914 646.8701994527011 374.6718364487914 C 649.6316232018551 374.6718364487914 651.8701994527011 376.91041269963745 651.8701994527011 379.6718364487914 Z" stroke-opacity="1" stroke-linecap="round" stroke-linejoin="round" stroke-miterlimit="10"/><text fill="rgb(21,101,192)" stroke="none" font-family="geogebra-sans-serif, sans-serif" font-size="16px" font-style="normal" font-weight="normal" text-decoration="normal" x="636" y="356" text-anchor="start" dominant-baseline="alphabetic" fill-opacity="1">E</text><text fill="none" stroke="rgb(255,255,255)" font-family="geogebra-sans-serif, sans-serif" font-size="16px" font-style="normal" font-weight="normal" text-decoration="normal" x="636" y="356" text-anchor="start" dominant-baseline="alphabetic" stroke-opacity="1" stroke-linejoin="bevel" stroke-miterlimit="10" stroke-width="3">E</text><text fill="rgb(21,101,192)" stroke="none" font-family="geogebra-sans-serif, sans-serif" font-size="16px" font-style="normal" font-weight="normal" text-decoration="normal" x="636" y="356" text-anchor="start" dominant-baseline="alphabetic" fill-opacity="1">E</text><path fill="rgb(21,101,192)" stroke="none" paint-order="stroke fill markers" d=" M 317.78714442043025 148.78721202858247 C 317.78714442043025 151.54863577773645 315.5485681695842 153.78721202858247 312.78714442043025 153.78721202858247 C 310.0257206712763 153.78721202858247 307.78714442043025 151.54863577773645 307.78714442043025 148.78721202858247 C 307.78714442043025 146.0257882794285 310.0257206712763 143.78721202858247 312.78714442043025 143.78721202858247 C 315.5485681695842 143.78721202858247 317.78714442043025 146.0257882794285 317.78714442043025 148.78721202858247 Z" fill-opacity="1"/><path fill="none" stroke="rgb(0,0,0)" paint-order="fill stroke markers" d=" M 317.78714442043025 148.78721202858247 C 317.78714442043025 151.54863577773645 315.5485681695842 153.78721202858247 312.78714442043025 153.78721202858247 C 310.0257206712763 153.78721202858247 307.78714442043025 151.54863577773645 307.78714442043025 148.78721202858247 C 307.78714442043025 146.0257882794285 310.0257206712763 143.78721202858247 312.78714442043025 143.78721202858247 C 315.5485681695842 143.78721202858247 317.78714442043025 146.0257882794285 317.78714442043025 148.78721202858247 Z" stroke-opacity="1" stroke-linecap="round" stroke-linejoin="round" stroke-miterlimit="10"/><text fill="rgb(21,101,192)" stroke="none" font-family="geogebra-sans-serif, sans-serif" font-size="16px" font-style="normal" font-weight="normal" text-decoration="normal" x="317" y="139" text-anchor="start" dominant-baseline="alphabetic" fill-opacity="1">F</text><text fill="none" stroke="rgb(255,255,255)" font-family="geogebra-sans-serif, sans-serif" font-size="16px" font-style="normal" font-weight="normal" text-decoration="normal" x="317" y="139" text-anchor="start" dominant-baseline="alphabetic" stroke-opacity="1" stroke-linejoin="bevel" stroke-miterlimit="10" stroke-width="3">F</text><text fill="rgb(21,101,192)" stroke="none" font-family="geogebra-sans-serif, sans-serif" font-size="16px" font-style="normal" font-weight="normal" text-decoration="normal" x="317" y="139" text-anchor="start" dominant-baseline="alphabetic" fill-opacity="1">F</text><path fill="rgb(211,47,47)" stroke="none" paint-order="stroke fill markers" d=" M 299.8757232341408 674.2722184096191 C 299.8757232341408 677.0336421587731 297.63714698329477 679.2722184096191 294.8757232341408 679.2722184096191 C 292.1142994849869 679.2722184096191 289.8757232341408 677.0336421587731 289.8757232341408 674.2722184096191 C 289.8757232341408 671.5107946604651 292.1142994849869 669.2722184096191 294.8757232341408 669.2722184096191 C 297.63714698329477 669.2722184096191 299.8757232341408 671.5107946604651 299.8757232341408 674.2722184096191 Z" fill-opacity="1"/><path fill="none" stroke="rgb(0,0,0)" paint-order="fill stroke markers" d=" M 299.8757232341408 674.2722184096191 C 299.8757232341408 677.0336421587731 297.63714698329477 679.2722184096191 294.8757232341408 679.2722184096191 C 292.1142994849869 679.2722184096191 289.8757232341408 677.0336421587731 289.8757232341408 674.2722184096191 C 289.8757232341408 671.5107946604651 292.1142994849869 669.2722184096191 294.8757232341408 669.2722184096191 C 297.63714698329477 669.2722184096191 299.8757232341408 671.5107946604651 299.8757232341408 674.2722184096191 Z" stroke-opacity="1" stroke-linecap="round" stroke-linejoin="round" stroke-miterlimit="10"/><text fill="rgb(211,47,47)" stroke="none" font-family="geogebra-sans-serif, sans-serif" font-size="16px" font-style="normal" font-weight="normal" text-decoration="normal" x="273" y="685" text-anchor="start" dominant-baseline="alphabetic" fill-opacity="1">q</text><text fill="none" stroke="rgb(255,255,255)" font-family="geogebra-sans-serif, sans-serif" font-size="16px" font-style="normal" font-weight="normal" text-decoration="normal" x="273" y="685" text-anchor="start" dominant-baseline="alphabetic" stroke-opacity="1" stroke-linejoin="bevel" stroke-miterlimit="10" stroke-width="3">q</text><text fill="rgb(211,47,47)" stroke="none" font-family="geogebra-sans-serif, sans-serif" font-size="16px" font-style="normal" font-weight="normal" text-decoration="normal" x="273" y="685" text-anchor="start" dominant-baseline="alphabetic" fill-opacity="1">q</text><text fill="rgb(0,0,0)" stroke="none" font-family="geogebra-sans-serif, sans-serif" font-size="32px" font-style="normal" font-weight="normal" text-decoration="normal" x="468" y="817" text-anchor="start" dominant-baseline="alphabetic" fill-opacity="1">Figure 1</text></g></g></svg>