<?xml version="1.0" encoding="UTF-8" standalone="no"?>
<!DOCTYPE svg PUBLIC "-//W3C//DTD SVG 1.1//EN"
 "http://www.w3.org/Graphics/SVG/1.1/DTD/svg11.dtd">
<!-- Generated by graphviz version 2.43.0 (0)
 -->
<!-- Title: G Pages: 1 -->
<svg width="264pt" height="275pt"
 viewBox="0.00 0.00 264.00 275.00" xmlns="http://www.w3.org/2000/svg" xmlns:xlink="http://www.w3.org/1999/xlink">
<g id="graph0" class="graph" transform="scale(1 1) rotate(0) translate(4 271)">
<title>G</title>
<polygon fill="white" stroke="transparent" points="-4,4 -4,-271 260,-271 260,4 -4,4"/>
<g id="clust1" class="cluster">
<title>cluster_lvl2</title>
<polygon fill="none" stroke="orange" stroke-dasharray="5,2" points="104,-136 104,-188 210,-188 210,-136 104,-136"/>
</g>
<!-- a -->
<g id="node1" class="node">
<title>a</title>
<ellipse fill="none" stroke="black" cx="157" cy="-234" rx="18" ry="18"/>
<text text-anchor="middle" x="157" y="-230.3" font-family="Times,serif" font-size="14.00">1</text>
<text text-anchor="middle" x="98" y="-255.8" font-family="Times,serif" font-size="14.00">The largest</text>
</g>
<!-- b -->
<g id="node2" class="node">
<title>b</title>
<ellipse fill="#fce6ac" stroke="black" cx="130" cy="-162" rx="18" ry="18"/>
<text text-anchor="middle" x="130" y="-158.3" font-family="Times,serif" font-size="14.00">2</text>
</g>
<!-- a&#45;&#45;b -->
<g id="edge1" class="edge">
<title>a&#45;&#45;b</title>
<path fill="none" stroke="black" d="M150.74,-216.76C146.38,-205.46 140.58,-190.44 136.23,-179.15"/>
</g>
<!-- c -->
<g id="node3" class="node">
<title>c</title>
<ellipse fill="#fce6ac" stroke="black" cx="184" cy="-162" rx="18" ry="18"/>
<text text-anchor="middle" x="184" y="-158.3" font-family="Times,serif" font-size="14.00">3</text>
</g>
<!-- a&#45;&#45;c -->
<g id="edge2" class="edge">
<title>a&#45;&#45;c</title>
<path fill="none" stroke="black" d="M163.26,-216.76C167.62,-205.46 173.42,-190.44 177.77,-179.15"/>
</g>
<!-- d -->
<g id="node4" class="node">
<title>d</title>
<ellipse fill="none" stroke="black" cx="72" cy="-90" rx="18" ry="18"/>
<text text-anchor="middle" x="72" y="-86.3" font-family="Times,serif" font-size="14.00">4</text>
</g>
<!-- b&#45;&#45;d -->
<g id="edge3" class="edge">
<title>b&#45;&#45;d</title>
<path fill="none" stroke="black" d="M118.82,-147.5C108.55,-135.11 93.41,-116.84 83.15,-104.46"/>
</g>
<!-- e -->
<g id="node5" class="node">
<title>e</title>
<ellipse fill="none" stroke="black" cx="130" cy="-90" rx="18" ry="18"/>
<text text-anchor="middle" x="130" y="-86.3" font-family="Times,serif" font-size="14.00">5</text>
</g>
<!-- b&#45;&#45;e -->
<g id="edge4" class="edge">
<title>b&#45;&#45;e</title>
<path fill="none" stroke="black" d="M130,-143.7C130,-132.85 130,-118.92 130,-108.1"/>
</g>
<!-- f -->
<g id="node6" class="node">
<title>f</title>
<ellipse fill="none" stroke="black" cx="184" cy="-90" rx="18" ry="18"/>
<text text-anchor="middle" x="184" y="-86.3" font-family="Times,serif" font-size="14.00">6</text>
</g>
<!-- c&#45;&#45;f -->
<g id="edge5" class="edge">
<title>c&#45;&#45;f</title>
<path fill="none" stroke="black" d="M184,-143.7C184,-132.85 184,-118.92 184,-108.1"/>
</g>
<!-- g -->
<g id="node7" class="node">
<title>g</title>
<ellipse fill="none" stroke="black" cx="238" cy="-90" rx="18" ry="18"/>
<text text-anchor="middle" x="238" y="-86.3" font-family="Times,serif" font-size="14.00">7</text>
</g>
<!-- c&#45;&#45;g -->
<g id="edge6" class="edge">
<title>c&#45;&#45;g</title>
<path fill="none" stroke="black" d="M194.67,-147.17C204.14,-134.9 217.89,-117.06 227.35,-104.8"/>
</g>
<!-- h -->
<g id="node8" class="node">
<title>h</title>
<ellipse fill="none" stroke="black" cx="18" cy="-18" rx="18" ry="18"/>
<text text-anchor="middle" x="18" y="-14.3" font-family="Times,serif" font-size="14.00">8</text>
</g>
<!-- d&#45;&#45;h -->
<g id="edge7" class="edge">
<title>d&#45;&#45;h</title>
<path fill="none" stroke="black" d="M61.33,-75.17C51.86,-62.9 38.11,-45.06 28.65,-32.8"/>
</g>
<!-- i -->
<g id="node9" class="node">
<title>i</title>
<ellipse fill="none" stroke="black" cx="72" cy="-18" rx="18" ry="18"/>
<text text-anchor="middle" x="72" y="-14.3" font-family="Times,serif" font-size="14.00">9</text>
</g>
<!-- d&#45;&#45;i -->
<g id="edge8" class="edge">
<title>d&#45;&#45;i</title>
<path fill="none" stroke="black" d="M72,-71.7C72,-60.85 72,-46.92 72,-36.1"/>
</g>
<!-- j -->
<g id="node10" class="node">
<title>j</title>
<text text-anchor="middle" x="135" y="-14.3" font-family="Times,serif" font-size="14.00">......</text>
</g>
<!-- e&#45;&#45;j -->
</g>
</svg>
