<?xml version="1.0" encoding="UTF-8" standalone="no"?>
<!DOCTYPE svg PUBLIC "-//W3C//DTD SVG 1.1//EN"
 "http://www.w3.org/Graphics/SVG/1.1/DTD/svg11.dtd">
<!-- Generated by graphviz version 2.43.0 (0)
 -->
<!-- Title: G Pages: 1 -->
<svg width="206pt" height="225pt"
 viewBox="0.00 0.00 206.00 224.69" xmlns="http://www.w3.org/2000/svg" xmlns:xlink="http://www.w3.org/1999/xlink">
<g id="graph0" class="graph" transform="scale(1 1) rotate(0) translate(4 220.69)">
<title>G</title>
<polygon fill="white" stroke="transparent" points="-4,4 -4,-220.69 202,-220.69 202,4 -4,4"/>
<g id="clust1" class="cluster">
<title>cluster_e2</title>
<polygon fill="none" stroke="orange" stroke-dasharray="5,2" points="132,-86.9 132,-145.79 190,-145.79 190,-86.9 132,-86.9"/>
</g>
<g id="clust2" class="cluster">
<title>cluster_lvl3</title>
<polygon fill="none" stroke="#99ff25" stroke-dasharray="5,2" points="8,-8 8,-66.9 127,-66.9 127,-8 8,-8"/>
</g>
<!-- a -->
<g id="node1" class="node">
<title>a</title>
<ellipse fill="none" stroke="black" cx="129" cy="-195.24" rx="21.4" ry="21.4"/>
<text text-anchor="start" x="120.5" y="-192.54" font-family="Times,serif" font-size="14.00">e</text>
<text text-anchor="start" x="129.5" y="-192.54" font-family="Times,serif" baseline-shift="sub" font-size="14.00">0</text>
</g>
<!-- b -->
<g id="node2" class="node">
<title>b</title>
<ellipse fill="none" stroke="black" cx="98" cy="-116.34" rx="21.4" ry="21.4"/>
<text text-anchor="start" x="89.5" y="-113.64" font-family="Times,serif" font-size="14.00">e</text>
<text text-anchor="start" x="98.5" y="-113.64" font-family="Times,serif" baseline-shift="sub" font-size="14.00">1</text>
</g>
<!-- a&#45;&#45;b -->
<g id="edge1" class="edge">
<title>a&#45;&#45;b</title>
<path fill="none" stroke="black" d="M121.18,-174.84C116.44,-163.09 110.43,-148.17 105.71,-136.48"/>
</g>
<!-- c -->
<g id="node3" class="node">
<title>c</title>
<ellipse fill="#fce6ac" stroke="black" cx="161" cy="-116.34" rx="21.4" ry="21.4"/>
<text text-anchor="start" x="152.5" y="-113.64" font-family="Times,serif" font-size="14.00">e</text>
<text text-anchor="start" x="161.5" y="-113.64" font-family="Times,serif" baseline-shift="sub" font-size="14.00">2</text>
</g>
<!-- a&#45;&#45;c -->
<g id="edge2" class="edge">
<title>a&#45;&#45;c</title>
<path fill="none" stroke="black" d="M136.91,-175.23C141.83,-163.4 148.14,-148.24 153.07,-136.4"/>
</g>
<!-- d -->
<g id="node4" class="node">
<title>d</title>
<ellipse fill="#d0fa9f" stroke="black" cx="98" cy="-37.45" rx="21.4" ry="21.4"/>
<text text-anchor="start" x="89.5" y="-34.75" font-family="Times,serif" font-size="14.00">e</text>
<text text-anchor="start" x="98.5" y="-34.75" font-family="Times,serif" baseline-shift="sub" font-size="14.00">3</text>
</g>
<!-- b&#45;&#45;d -->
<g id="edge3" class="edge">
<title>b&#45;&#45;d</title>
<path fill="none" stroke="black" d="M98,-94.74C98,-83.7 98,-70.15 98,-59.11"/>
</g>
<!-- e -->
<g id="node5" class="node">
<title>e</title>
<ellipse fill="#d0fa9f" stroke="black" cx="37" cy="-37.45" rx="21.4" ry="21.4"/>
<text text-anchor="start" x="28.5" y="-34.75" font-family="Times,serif" font-size="14.00">e</text>
<text text-anchor="start" x="37.5" y="-34.75" font-family="Times,serif" baseline-shift="sub" font-size="14.00">4</text>
</g>
<!-- b&#45;&#45;e -->
<g id="edge4" class="edge">
<title>b&#45;&#45;e</title>
<path fill="none" stroke="black" d="M85.06,-99.04C74.71,-85.99 60.26,-67.78 49.92,-54.73"/>
</g>
<!-- j -->
<g id="node6" class="node">
<title>j</title>
<text text-anchor="middle" x="164" y="-33.75" font-family="Times,serif" font-size="14.00">......</text>
</g>
<!-- c&#45;&#45;j -->
</g>
</svg>
